<mxfile host="app.diagrams.net" modified="2024-06-11T09:40:53.498Z" agent="Mozilla/5.0 (Macintosh; Intel Mac OS X 10_15_7) AppleWebKit/537.36 (KHTML, like Gecko) Chrome/125.0.0.0 Safari/537.36" version="24.5.2" etag="Rv9KtqxxNewP_wF5phT_" type="github">
  <diagram name="Page-1" id="AQL5Miy9eA6Zf9dRA3ta">
    <mxGraphModel>
      <root>
        <mxCell id="0" />
        <mxCell id="1" parent="0" />
        <mxCell id="2" value="Insurance Bank System" style="whiteSpace=wrap;strokeWidth=2;verticalAlign=top;" vertex="1" parent="1">
          <mxGeometry width="2266" height="754" as="geometry" />
        </mxCell>
        <mxCell id="3" value="Data Collection" style="whiteSpace=wrap;strokeWidth=2;verticalAlign=top;" vertex="1" parent="2">
          <mxGeometry x="33" y="43" width="2216" height="317" as="geometry" />
        </mxCell>
        <mxCell id="4" value="BankDB" style="whiteSpace=wrap;strokeWidth=2;" vertex="1" parent="3">
          <mxGeometry x="584" y="217" width="68" height="34" as="geometry" />
        </mxCell>
        <mxCell id="5" value="Customer Information" style="whiteSpace=wrap;strokeWidth=2;verticalAlign=top;" vertex="1" parent="3">
          <mxGeometry x="48" y="58" width="710" height="217" as="geometry" />
        </mxCell>
        <mxCell id="6" value="CustomerID" style="whiteSpace=wrap;strokeWidth=2;" vertex="1" parent="3">
          <mxGeometry x="83" y="83" width="97" height="34" as="geometry" />
        </mxCell>
        <mxCell id="7" value="Name" style="whiteSpace=wrap;strokeWidth=2;" vertex="1" parent="3">
          <mxGeometry x="230" y="83" width="56" height="34" as="geometry" />
        </mxCell>
        <mxCell id="8" value="PolicyDetails" style="whiteSpace=wrap;strokeWidth=2;" vertex="1" parent="3">
          <mxGeometry x="336" y="83" width="106" height="34" as="geometry" />
        </mxCell>
        <mxCell id="9" value="PremiumAmount" style="whiteSpace=wrap;strokeWidth=2;" vertex="1" parent="3">
          <mxGeometry x="492" y="83" width="133" height="34" as="geometry" />
        </mxCell>
        <mxCell id="10" value="ClaimID" style="whiteSpace=wrap;strokeWidth=2;" vertex="1" parent="3">
          <mxGeometry x="813" y="83" width="70" height="34" as="geometry" />
        </mxCell>
        <mxCell id="11" value="ClaimAmount" style="whiteSpace=wrap;strokeWidth=2;" vertex="1" parent="3">
          <mxGeometry x="933" y="83" width="111" height="34" as="geometry" />
        </mxCell>
        <mxCell id="12" value="Status" style="whiteSpace=wrap;strokeWidth=2;" vertex="1" parent="3">
          <mxGeometry x="1094" y="83" width="59" height="34" as="geometry" />
        </mxCell>
        <mxCell id="13" value="PolicyNumber" style="whiteSpace=wrap;strokeWidth=2;" vertex="1" parent="3">
          <mxGeometry x="1283" y="83" width="113" height="34" as="geometry" />
        </mxCell>
        <mxCell id="14" value="PolicyHolder" style="whiteSpace=wrap;strokeWidth=2;" vertex="1" parent="3">
          <mxGeometry x="1446" y="83" width="104" height="34" as="geometry" />
        </mxCell>
        <mxCell id="15" value="PaymentDetails" style="whiteSpace=wrap;strokeWidth=2;" vertex="1" parent="3">
          <mxGeometry x="1600" y="83" width="126" height="34" as="geometry" />
        </mxCell>
        <mxCell id="16" value="ApproverID" style="whiteSpace=wrap;strokeWidth=2;" vertex="1" parent="3">
          <mxGeometry x="1816" y="83" width="94" height="34" as="geometry" />
        </mxCell>
        <mxCell id="17" value="Decision" style="whiteSpace=wrap;strokeWidth=2;" vertex="1" parent="3">
          <mxGeometry x="1960" y="83" width="74" height="34" as="geometry" />
        </mxCell>
        <mxCell id="18" value="Reason" style="whiteSpace=wrap;strokeWidth=2;" vertex="1" parent="3">
          <mxGeometry x="2084" y="83" width="65" height="34" as="geometry" />
        </mxCell>
        <mxCell id="19" value="Retrieve Data from Customers" style="whiteSpace=wrap;strokeWidth=2;verticalAlign=top;" vertex="1" parent="3">
          <mxGeometry x="28" y="33" width="1180" height="267" as="geometry" />
        </mxCell>
        <mxCell id="20" value="Claim Details" style="whiteSpace=wrap;strokeWidth=2;verticalAlign=top;" vertex="1" parent="3">
          <mxGeometry x="778" y="58" width="409" height="84" as="geometry" />
        </mxCell>
        <mxCell id="21" value="Policy Information" style="whiteSpace=wrap;strokeWidth=2;verticalAlign=top;" vertex="1" parent="3">
          <mxGeometry x="1248" y="58" width="513" height="84" as="geometry" />
        </mxCell>
        <mxCell id="22" value="Retrieve Data from Insurers" style="whiteSpace=wrap;strokeWidth=2;verticalAlign=top;" vertex="1" parent="3">
          <mxGeometry x="1228" y="33" width="976" height="134" as="geometry" />
        </mxCell>
        <mxCell id="23" value="Underwriting Details" style="whiteSpace=wrap;strokeWidth=2;verticalAlign=top;" vertex="1" parent="3">
          <mxGeometry x="1781" y="58" width="403" height="84" as="geometry" />
        </mxCell>
        <mxCell id="24" value="" style="curved=1;startArrow=none;endArrow=block;exitX=0.16088112113402062;exitY=-0.27941176470588236;entryX=-0.48201976102941174;entryY=-0.8727261074264047;" edge="1" parent="3" source="6" target="4">
          <mxGeometry relative="1" as="geometry">
            <Array as="points">
              <mxPoint x="132" y="192" />
            </Array>
          </mxGeometry>
        </mxCell>
        <mxCell id="25" value="" style="curved=1;startArrow=none;endArrow=block;exitX=-0.0888671875;exitY=-0.27941176470588236;entryX=-0.48201976102941174;entryY=-0.9028898177362872;" edge="1" parent="3" source="7" target="4">
          <mxGeometry relative="1" as="geometry">
            <Array as="points">
              <mxPoint x="258" y="192" />
            </Array>
          </mxGeometry>
        </mxCell>
        <mxCell id="26" value="" style="curved=1;startArrow=none;endArrow=block;exitX=0.18665241745283018;exitY=-0.27941176470588236;entryX=-0.48201976102941174;entryY=-0.9690519193686936;" edge="1" parent="3" source="8" target="4">
          <mxGeometry relative="1" as="geometry">
            <Array as="points">
              <mxPoint x="389" y="192" />
            </Array>
          </mxGeometry>
        </mxCell>
        <mxCell id="27" value="" style="curved=1;startArrow=none;endArrow=block;exitX=0.2503230733082707;exitY=-0.27941176470588236;entryX=-0.334983640256252;entryY=-1.2794117647058822;" edge="1" parent="3" source="9" target="4">
          <mxGeometry relative="1" as="geometry">
            <Array as="points">
              <mxPoint x="558" y="192" />
            </Array>
          </mxGeometry>
        </mxCell>
        <mxCell id="28" value="" style="curved=1;startArrow=none;endArrow=block;exitX=0.03136160714285714;exitY=-0.27941176470588236;entryX=-0.21698434472965875;entryY=-1.2794117647058822;" edge="1" parent="3" source="10" target="4">
          <mxGeometry relative="1" as="geometry">
            <Array as="points">
              <mxPoint x="848" y="142" />
              <mxPoint x="578" y="167" />
              <mxPoint x="578" y="192" />
            </Array>
          </mxGeometry>
        </mxCell>
        <mxCell id="29" value="" style="curved=1;startArrow=none;endArrow=block;exitX=0.2021044481981982;exitY=-0.27941176470588236;entryX=-0.09898504920306384;entryY=-1.2794117647058822;" edge="1" parent="3" source="11" target="4">
          <mxGeometry relative="1" as="geometry">
            <Array as="points">
              <mxPoint x="988" y="142" />
              <mxPoint x="598" y="167" />
              <mxPoint x="598" y="192" />
            </Array>
          </mxGeometry>
        </mxCell>
        <mxCell id="30" value="" style="curved=1;startArrow=none;endArrow=block;exitX=-0.06316207627118645;exitY=-0.27941176470588236;entryX=0.01901424632352941;entryY=-1.2794117647058822;" edge="1" parent="3" source="12" target="4">
          <mxGeometry relative="1" as="geometry">
            <Array as="points">
              <mxPoint x="1123" y="142" />
              <mxPoint x="618" y="167" />
            </Array>
          </mxGeometry>
        </mxCell>
        <mxCell id="31" value="" style="curved=1;startArrow=none;endArrow=block;exitX=0.20575221238938052;exitY=-0.27941176470588236;entryX=0.13701354185012266;entryY=-1.2794117647058822;" edge="1" parent="3" source="13" target="4">
          <mxGeometry relative="1" as="geometry">
            <Array as="points">
              <mxPoint x="1339" y="167" />
              <mxPoint x="638" y="192" />
            </Array>
          </mxGeometry>
        </mxCell>
        <mxCell id="32" value="" style="curved=1;startArrow=none;endArrow=block;exitX=0.18235426682692307;exitY=-0.27941176470588236;entryX=0.25501283737671754;entryY=-1.2794117647058822;" edge="1" parent="3" source="14" target="4">
          <mxGeometry relative="1" as="geometry">
            <Array as="points">
              <mxPoint x="1498" y="167" />
              <mxPoint x="658" y="192" />
            </Array>
          </mxGeometry>
        </mxCell>
        <mxCell id="33" value="" style="curved=1;startArrow=none;endArrow=block;exitX=0.23818824404761904;exitY=-0.27941176470588236;entryX=0.3730121329033108;entryY=-1.2794117647058822;" edge="1" parent="3" source="15" target="4">
          <mxGeometry relative="1" as="geometry">
            <Array as="points">
              <mxPoint x="1663" y="167" />
              <mxPoint x="678" y="192" />
            </Array>
          </mxGeometry>
        </mxCell>
        <mxCell id="34" value="" style="curved=1;startArrow=none;endArrow=block;exitX=0.14760638297872342;exitY=-0.27941176470588236;entryX=0.4910114284299057;entryY=-1.2794117647058822;" edge="1" parent="3" source="16" target="4">
          <mxGeometry relative="1" as="geometry">
            <Array as="points">
              <mxPoint x="1863" y="167" />
              <mxPoint x="698" y="192" />
            </Array>
          </mxGeometry>
        </mxCell>
        <mxCell id="35" value="" style="curved=1;startArrow=none;endArrow=block;exitX=0.05579603040540541;exitY=-0.27941176470588236;entryX=0.5200482536764706;entryY=-1.2051281020220586;" edge="1" parent="3" source="17" target="4">
          <mxGeometry relative="1" as="geometry">
            <Array as="points">
              <mxPoint x="1997" y="167" />
              <mxPoint x="718" y="192" />
            </Array>
          </mxGeometry>
        </mxCell>
        <mxCell id="36" value="" style="curved=1;startArrow=none;endArrow=block;exitX=-0.0057692307692307696;exitY=-0.27941176470588236;entryX=0.5200482536764706;entryY=-1.1354008693321078;" edge="1" parent="3" source="18" target="4">
          <mxGeometry relative="1" as="geometry">
            <Array as="points">
              <mxPoint x="2117" y="167" />
              <mxPoint x="738" y="192" />
            </Array>
          </mxGeometry>
        </mxCell>
        <mxCell id="37" value="Data Monitoring" style="whiteSpace=wrap;strokeWidth=2;verticalAlign=top;" vertex="1" parent="2">
          <mxGeometry x="323" y="410" width="1635" height="317" as="geometry" />
        </mxCell>
        <mxCell id="38" value="Insight" style="whiteSpace=wrap;strokeWidth=2;" vertex="1" parent="37">
          <mxGeometry x="287" y="217" width="62" height="34" as="geometry" />
        </mxCell>
        <mxCell id="39" value="Premium Trends" style="whiteSpace=wrap;strokeWidth=2;verticalAlign=top;" vertex="1" parent="37">
          <mxGeometry x="48" y="58" width="360" height="217" as="geometry" />
        </mxCell>
        <mxCell id="40" value="Analyze" style="whiteSpace=wrap;strokeWidth=2;" vertex="1" parent="37">
          <mxGeometry x="83" y="83" width="71" height="34" as="geometry" />
        </mxCell>
        <mxCell id="41" value="GenerateReport" style="whiteSpace=wrap;strokeWidth=2;" vertex="1" parent="37">
          <mxGeometry x="204" y="83" width="129" height="34" as="geometry" />
        </mxCell>
        <mxCell id="42" value="IdentifyFraud" style="whiteSpace=wrap;strokeWidth=2;" vertex="1" parent="37">
          <mxGeometry x="463" y="83" width="111" height="34" as="geometry" />
        </mxCell>
        <mxCell id="43" value="PredictLosses" style="whiteSpace=wrap;strokeWidth=2;" vertex="1" parent="37">
          <mxGeometry x="624" y="83" width="111" height="34" as="geometry" />
        </mxCell>
        <mxCell id="44" value="CalculateRatio" style="whiteSpace=wrap;strokeWidth=2;" vertex="1" parent="37">
          <mxGeometry x="865" y="83" width="120" height="34" as="geometry" />
        </mxCell>
        <mxCell id="45" value="MonitorTrends" style="whiteSpace=wrap;strokeWidth=2;" vertex="1" parent="37">
          <mxGeometry x="1035" y="83" width="116" height="34" as="geometry" />
        </mxCell>
        <mxCell id="46" value="EvaluateApprovals" style="whiteSpace=wrap;strokeWidth=2;" vertex="1" parent="37">
          <mxGeometry x="1241" y="83" width="146" height="34" as="geometry" />
        </mxCell>
        <mxCell id="47" value="ReviewDecisions" style="whiteSpace=wrap;strokeWidth=2;" vertex="1" parent="37">
          <mxGeometry x="1437" y="83" width="131" height="34" as="geometry" />
        </mxCell>
        <mxCell id="48" value="Data Analysis" style="whiteSpace=wrap;strokeWidth=2;verticalAlign=top;" vertex="1" parent="37">
          <mxGeometry x="28" y="33" width="762" height="267" as="geometry" />
        </mxCell>
        <mxCell id="49" value="Claim Patterns" style="whiteSpace=wrap;strokeWidth=2;verticalAlign=top;" vertex="1" parent="37">
          <mxGeometry x="428" y="58" width="342" height="84" as="geometry" />
        </mxCell>
        <mxCell id="50" value="Claims Ratio" style="whiteSpace=wrap;strokeWidth=2;verticalAlign=top;" vertex="1" parent="37">
          <mxGeometry x="830" y="58" width="356" height="84" as="geometry" />
        </mxCell>
        <mxCell id="51" value="Risk Evaluation" style="whiteSpace=wrap;strokeWidth=2;verticalAlign=top;" vertex="1" parent="37">
          <mxGeometry x="810" y="33" width="813" height="134" as="geometry" />
        </mxCell>
        <mxCell id="52" value="Underwriting Performance" style="whiteSpace=wrap;strokeWidth=2;verticalAlign=top;" vertex="1" parent="37">
          <mxGeometry x="1206" y="58" width="398" height="84" as="geometry" />
        </mxCell>
        <mxCell id="53" value="" style="curved=1;startArrow=none;endArrow=block;exitX=-4.052706866197183;exitY=-11.073529411764707;entryX=-5.2109375;entryY=-11.772445880950164;" edge="1" parent="37" source="40" target="38">
          <mxGeometry relative="1" as="geometry">
            <Array as="points">
              <mxPoint x="118" y="192" />
            </Array>
          </mxGeometry>
        </mxCell>
        <mxCell id="54" value="" style="curved=1;startArrow=none;endArrow=block;exitX=-2.006994912790698;exitY=-11.073529411764707;entryX=-5.031648774024531;entryY=-12.073529411764707;" edge="1" parent="37" source="41" target="38">
          <mxGeometry relative="1" as="geometry">
            <Array as="points">
              <mxPoint x="268" y="192" />
            </Array>
          </mxGeometry>
        </mxCell>
        <mxCell id="55" value="" style="curved=1;startArrow=none;endArrow=block;exitX=-2.4080095720720722;exitY=-11.073529411764707;entryX=-4.902230191834073;entryY=-12.073529411764707;" edge="1" parent="37" source="42" target="38">
          <mxGeometry relative="1" as="geometry">
            <Array as="points">
              <mxPoint x="519" y="142" />
              <mxPoint x="288" y="167" />
              <mxPoint x="288" y="192" />
            </Array>
          </mxGeometry>
        </mxCell>
        <mxCell id="56" value="" style="curved=1;startArrow=none;endArrow=block;exitX=-2.408326295045045;exitY=-11.073529411764707;entryX=-4.7728116096436155;entryY=-12.073529411764707;" edge="1" parent="37" source="43" target="38">
          <mxGeometry relative="1" as="geometry">
            <Array as="points">
              <mxPoint x="680" y="142" />
              <mxPoint x="308" y="167" />
              <mxPoint x="308" y="192" />
            </Array>
          </mxGeometry>
        </mxCell>
        <mxCell id="57" value="" style="curved=1;startArrow=none;endArrow=block;exitX=-2.1924153645833333;exitY=-11.073529411764707;entryX=-4.6433930274531585;entryY=-12.073529411764707;" edge="1" parent="37" source="44" target="38">
          <mxGeometry relative="1" as="geometry">
            <Array as="points">
              <mxPoint x="925" y="167" />
              <mxPoint x="328" y="192" />
            </Array>
          </mxGeometry>
        </mxCell>
        <mxCell id="58" value="" style="curved=1;startArrow=none;endArrow=block;exitX=-2.286267510775862;exitY=-11.073529411764707;entryX=-4.513974445262701;entryY=-12.073529411764707;" edge="1" parent="37" source="45" target="38">
          <mxGeometry relative="1" as="geometry">
            <Array as="points">
              <mxPoint x="1093" y="167" />
              <mxPoint x="348" y="192" />
            </Array>
          </mxGeometry>
        </mxCell>
        <mxCell id="59" value="" style="curved=1;startArrow=none;endArrow=block;exitX=-1.7128638698630136;exitY=-11.073529411764707;entryX=-4.384555863072243;entryY=-12.073529411764707;" edge="1" parent="37" source="46" target="38">
          <mxGeometry relative="1" as="geometry">
            <Array as="points">
              <mxPoint x="1314" y="167" />
              <mxPoint x="368" y="192" />
            </Array>
          </mxGeometry>
        </mxCell>
        <mxCell id="60" value="" style="curved=1;startArrow=none;endArrow=block;exitX=-1.9641579198473282;exitY=-11.073529411764707;entryX=-4.255137280881785;entryY=-12.073529411764707;" edge="1" parent="37" source="47" target="38">
          <mxGeometry relative="1" as="geometry">
            <Array as="points">
              <mxPoint x="1503" y="167" />
              <mxPoint x="388" y="192" />
            </Array>
          </mxGeometry>
        </mxCell>
      </root>
    </mxGraphModel>
  </diagram>
</mxfile>
